<?xml version="1.0" encoding="UTF-8" standalone="no"?>
<!-- Created with Inkscape (http://www.inkscape.org/) -->

<svg
   width="600mm"
   height="424.24243mm"
   viewBox="0 0 600 424.24243"
   version="1.1"
   id="svg1"
   xml:space="preserve"
   xmlns="http://www.w3.org/2000/svg"
   xmlns:svg="http://www.w3.org/2000/svg"><defs
     id="defs1" /><g
     id="layer1"><g
       id="g6"
       transform="matrix(1.3463904,0,0,1.3463904,-96.00846,-71.830828)"><g
         id="g3"
         transform="translate(-56.734374,124.17086)"
         style="stroke:#862633;stroke-opacity:1"><g
           id="g2"
           transform="translate(97.897026,-135.68818)"
           style="stroke:#862633;stroke-opacity:1"><rect
             style="fill:none;stroke:#862633;stroke-width:5.1;stroke-linejoin:round;stroke-dasharray:none;stroke-opacity:1"
             id="rect1"
             width="309.99615"
             height="59.209488"
             x="47.104897"
             y="318.20465" /><path
             style="fill:none;stroke:#862633;stroke-width:5.1;stroke-linejoin:round;stroke-dasharray:none;stroke-opacity:1"
             id="path1"
             d="m 189.66329,354.06832 -19.46541,0 -9.7327,-16.85754 9.7327,-16.85753 19.46541,0 9.73271,16.85754 z"
             transform="translate(22.172385,10.598586)" /><path
             style="fill:none;stroke:#862633;stroke-width:5.1;stroke-linejoin:round;stroke-dasharray:none;stroke-opacity:1"
             id="path1-4"
             d="m 189.66329,354.06832 -19.46541,0 -9.7327,-16.85754 9.7327,-16.85753 19.46541,0 9.73271,16.85754 z"
             transform="matrix(0.57227823,0,0,0.57227823,124.66093,143.85561)" /><path
             style="fill:none;stroke:#862633;stroke-width:5.1;stroke-linejoin:round;stroke-dasharray:none;stroke-opacity:1"
             id="path1-4-1"
             d="m 189.66329,354.06832 -19.46541,0 -9.7327,-16.85754 9.7327,-16.85753 19.46541,0 9.73271,16.85754 z"
             transform="matrix(0.57227823,0,0,0.57227823,141.37037,153.50281)" /><path
             style="fill:none;stroke:#862633;stroke-width:5.1;stroke-linejoin:round;stroke-dasharray:none;stroke-opacity:1"
             id="path1-4-1-6"
             d="m 189.66329,354.06832 -19.46541,0 -9.7327,-16.85754 9.7327,-16.85753 19.46541,0 9.73271,16.85754 z"
             transform="matrix(0.57227823,0,0,0.57227823,72.606613,163.87835)" /></g><circle
           style="fill:none;stroke:#862633;stroke-width:1.52445;stroke-linejoin:round;stroke-dasharray:none;stroke-opacity:1"
           id="path2"
           cx="159.09306"
           cy="212.12122"
           r="5.0066543" /><rect
           style="fill:none;stroke:#862633;stroke-width:2;stroke-linejoin:round;stroke-dasharray:none;stroke-opacity:1"
           id="rect2"
           width="2.8631105"
           height="11.452442"
           x="157.98007"
           y="189.5379" /><rect
           style="fill:none;stroke:#862633;stroke-width:2;stroke-linejoin:round;stroke-dasharray:none;stroke-opacity:1"
           id="rect2-2"
           width="2.8631105"
           height="11.452442"
           x="157.98007"
           y="223.03455" /></g><g
         id="g3-5"
         transform="rotate(-90,384.7059,126.19284)"
         style="stroke:#862633;stroke-opacity:1"><g
           id="g2-7"
           transform="translate(97.897026,-135.68818)"
           style="stroke:#862633;stroke-opacity:1"><rect
             style="fill:none;stroke:#862633;stroke-width:5.1;stroke-linejoin:round;stroke-dasharray:none;stroke-opacity:1"
             id="rect1-6"
             width="309.99615"
             height="59.209488"
             x="47.104897"
             y="318.20465" /><path
             style="fill:none;stroke:#862633;stroke-width:5.1;stroke-linejoin:round;stroke-dasharray:none;stroke-opacity:1"
             id="path1-1"
             d="m 189.66329,354.06832 -19.46541,0 -9.7327,-16.85754 9.7327,-16.85753 19.46541,0 9.73271,16.85754 z"
             transform="translate(22.172385,10.598586)" /><path
             style="fill:none;stroke:#862633;stroke-width:5.1;stroke-linejoin:round;stroke-dasharray:none;stroke-opacity:1"
             id="path1-4-8"
             d="m 189.66329,354.06832 -19.46541,0 -9.7327,-16.85754 9.7327,-16.85753 19.46541,0 9.73271,16.85754 z"
             transform="matrix(0.57227823,0,0,0.57227823,124.66093,143.85561)" /><path
             style="fill:none;stroke:#862633;stroke-width:5.1;stroke-linejoin:round;stroke-dasharray:none;stroke-opacity:1"
             id="path1-4-1-9"
             d="m 189.66329,354.06832 -19.46541,0 -9.7327,-16.85754 9.7327,-16.85753 19.46541,0 9.73271,16.85754 z"
             transform="matrix(0.57227823,0,0,0.57227823,141.37037,153.50281)" /><path
             style="fill:none;stroke:#862633;stroke-width:5.1;stroke-linejoin:round;stroke-dasharray:none;stroke-opacity:1"
             id="path1-4-1-6-2"
             d="m 189.66329,354.06832 -19.46541,0 -9.7327,-16.85754 9.7327,-16.85753 19.46541,0 9.73271,16.85754 z"
             transform="matrix(0.57227823,0,0,0.57227823,72.606613,163.87835)" /></g><circle
           style="fill:none;stroke:#862633;stroke-width:1.52445;stroke-linejoin:round;stroke-dasharray:none;stroke-opacity:1"
           id="path2-7"
           cx="159.09306"
           cy="212.12122"
           r="5.0066543" /><rect
           style="fill:none;stroke:#862633;stroke-width:2;stroke-linejoin:round;stroke-dasharray:none;stroke-opacity:1"
           id="rect2-9"
           width="2.8631105"
           height="11.452442"
           x="157.98007"
           y="189.5379" /><rect
           style="fill:none;stroke:#862633;stroke-width:2;stroke-linejoin:round;stroke-dasharray:none;stroke-opacity:1"
           id="rect2-2-5"
           width="2.8631105"
           height="11.452442"
           x="157.98007"
           y="223.03455" /></g><g
         style="fill:#000000"
         id="g5"
         transform="matrix(0.29232547,-0.29232547,0.29232547,0.29232547,73.168496,180.57166)"><g
           id="g2-2"
           transform="matrix(1.2338187,0,0,1.2338187,-289.26436,-95.923321)"
           style="fill:#862633;fill-opacity:1;stroke:#862633;stroke-width:0.999855;stroke-dasharray:none;stroke-opacity:1">
	<g
   id="g1"
   transform="matrix(0.47851645,0,0,0.47851645,121.33642,159.11969)"
   style="fill:#862633;fill-opacity:1;stroke:#862633;stroke-width:2.08949;stroke-dasharray:none;stroke-opacity:1">
		<path
   d="m 487.592,435.748 -17.986,-21.223 c -2.495,-2.943 -6.433,-4.225 -10.183,-3.318 -9.734,2.36 -19.797,4.083 -29.912,5.12 -74.977,7.698 -144.062,-17.704 -199.797,-73.441 -55.458,-55.457 -59.822,-110.548 -65.861,-186.796 -0.432,-5.454 -0.871,-11 -1.339,-16.645 -0.053,-0.644 -0.073,-1.458 -0.097,-2.32 -0.06,-2.268 -0.135,-5.09 -0.813,-8.263 -0.919,-4.311 -2.208,-8.605 -3.831,-12.763 -3.352,-8.59 -2.736,-18.314 1.694,-26.679 l 29.211,-55.171 c 1.266,-2.392 1.53,-5.186 0.734,-7.771 -0.794,-2.585 -2.584,-4.749 -4.976,-6.014 L 148.028,1.188 c -4.975,-2.636 -11.149,-0.736 -13.786,4.241 l -28.02,52.921 c -3.068,5.794 -8.742,10.04 -15.568,11.649 -10.423,2.455 -18.983,8.259 -24.753,16.783 -72.968,107.767 -54.177,234.461 50.266,338.903 45.076,45.075 106.018,74.78 171.6,83.642 13.201,1.783 26.259,2.674 39.114,2.674 17.919,0 35.445,-1.732 52.402,-5.19 30.312,-6.181 57.285,-17.596 80.172,-33.926 9.818,-7.007 19.094,-14.855 27.568,-23.33 3.753,-3.753 4,-9.757 0.569,-13.807 z M 147.497,23.986 l 18.381,9.732 -19.362,36.57 -7.121,-4.353 -10.659,-6.515 z M 327.016,491.688 C 257.385,491.683 182.931,463.601 130.59,411.261 33.606,314.276 15.737,197.25 82.792,98.215 c 3.601,-5.32 8.808,-7.485 12.541,-8.364 8.871,-2.092 16.736,-6.701 22.641,-13.103 l 19.724,12.056 c -3.588,11.348 -3.271,23.584 1.072,34.708 1.223,3.135 2.194,6.367 2.885,9.607 0.285,1.334 0.323,2.82 0.369,4.541 0.029,1.106 0.059,2.248 0.159,3.461 0.464,5.625 0.903,11.148 1.333,16.579 6.144,77.569 10.998,138.835 71.772,199.61 30.458,30.458 64.976,52.68 102.594,66.05 34.126,12.129 70.167,16.78 107.232,13.847 l 0.385,0.638 2.056,3.409 c -25.368,10.272 -51.968,15.3 -78.603,15.298 C 290.426,456.549 231.783,432.345 186.018,386.58 114.759,315.322 85.716,234.142 104.239,157.991 c 1.332,-5.473 -2.026,-10.988 -7.5,-12.32 -5.473,-1.333 -10.988,2.026 -12.32,7.5 -20.27,83.333 10.688,171.349 87.175,247.833 37.321,37.321 83.187,62.057 132.64,71.533 15.021,2.878 30.068,4.308 44.999,4.308 30.638,-0.001 60.756,-6.035 88.979,-17.916 l 1.572,2.607 C 407.56,481.9 368.132,491.69 327.016,491.688 Z m 129.401,-42.072 -2.346,-3.889 -6.772,-11.23 c 3.609,-0.607 7.198,-1.292 10.754,-2.055 l 7.76,9.157 c -3.044,2.764 -6.179,5.44 -9.396,8.017 z"
   id="path1-3"
   style="fill:#862633;fill-opacity:1;stroke:#862633;stroke-width:2.08949;stroke-dasharray:none;stroke-opacity:1" />
	</g>
</g></g></g></g></svg>
